#!OML:ASF H:\ManfredETheater\Project 1\Capture day 1\Session 1\subject.ASF
:FULLY-SPECIFIED
:DEGREES
218
root -6.3641 13.9463 7.62549 -138.175 16.9149 162.894
lowerback 44.9273 -8.13151 5.93847
upperback 14.8242 -2.83513 -3.6314
thorax -4.68708 0.68 -5.86358
lowerneck 1.96247 -11.1 -1.78574
upperneck -22.6573 -14.2861 4.03399
head -6.80681 -6.31348 2.35215
rclavicle 6.67916e-014 2.38542e-015
rhumerus 68.2431 -28.7853 -47.9448
rradius 32.0596
rwrist 4.4442
rhand -28.717 -9.60141
rfingers 7.12502
rthumb -2.07838 -39.571
lclavicle 6.67916e-014 2.38542e-015
lhumerus 15.2874 4.6539 56.4571
lradius 92.9685
lwrist 5.12229
lhand -30.3613 -12.4934
lfingers 7.12502
lthumb -3.66637 17.4549
rfemur -53.4683 -0.440987 28.4917
rtibia 76.7126
rfoot -34.7291 -23.9969
rtoes -42.4352
lfemur -112.394 -0.618205 -40.5384
ltibia 59.4327
lfoot 15.2089 -16.7076
ltoes -16.5853
219
root -6.20941 13.8971 7.14394 -137.153 17.1806 162.837
lowerback 45.2213 -7.91863 5.77564
upperback 14.9754 -2.57082 -3.63124
thorax -4.5534 0.807208 -5.88388
lowerneck 2.48615 -10.1354 -1.54404
upperneck -22.9587 -14.3684 3.81857
head -7.05823 -7.9151 2.50237
rclavicle 1.74931e-014 1.23246e-014
rhumerus 70.616 -30.1934 -50.1968
rradius 30.6202
rwrist 4.32914
rhand -28.2148 -10.3621
rfingers 7.12502
rthumb -1.59338 -40.3359
lclavicle 1.74931e-014 1.23246e-014
lhumerus 18.3573 3.88638 53.6178
lradius 92.1603
lwrist 4.97287
lhand -30.7971 -12.5037
lfingers 7.12502
lthumb -4.08722 17.4368
rfemur -51.5558 -0.618297 28.4747
rtibia 74.6387
rfoot -33.8928 -23.9246
rtoes -43.2542
lfemur -112.94 -0.862733 -39.6702
ltibia 61.5323
lfoot 12.041 -16.8237
ltoes -13.7875
220
root -6.04162 13.8477 6.65279 -136.273 17.333 162.653
lowerback 45.6427 -7.71709 5.53363
upperback 15.0757 -2.34295 -3.63368
thorax -4.5092 0.914001 -5.85213
lowerneck 3.02767 -10.3953 -1.35294
upperneck -23.3312 -14.5348 4.28131
head -7.24525 -8.02136 2.68035
rclavicle 1.27222e-014 1.59028e-015
rhumerus 72.4118 -31.3078 -52.3112
rradius 29.6626
rwrist 3.95311
rhand -27.9746 -10.8604
rfingers 7.12502
rthumb -1.36137 -40.8358
lclavicle 1.27222e-014 1.59028e-015
lhumerus 21.5693 3.31693 50.6934
lradius 91.2727
lwrist 4.89005
lhand -31.2612 -12.5076
lfingers 7.12502
lthumb -4.53537 17.4238
rfemur -49.4573 -0.986253 28.427
rtibia 72.3696
rfoot -32.5736 -23.4468
rtoes -44.0362
lfemur -113.301 -1.14741 -38.9387
ltibia 64.071
lfoot 8.12232 -16.4805
ltoes -10.6099
221
root -5.85977 13.7947 6.15664 -135.392 17.4084 162.444
lowerback 46.0601 -7.45283 5.19899
upperback 15.1237 -2.09729 -3.62065
thorax -4.51635 1.01766 -5.76622
lowerneck 3.55916 -10.6338 -1.21942
upperneck -23.6967 -14.6281 4.90169
head -7.41243 -8.09941 2.9107
rclavicle -2.8625e-014 4.53229e-014
rhumerus 73.4811 -32.1198 -54.1648
rradius 29.2137
rwrist 3.45248
rhand -28.2671 -11.0646
rfingers 7.12502
rthumb -1.64392 -41.038
lclavicle -2.8625e-014 4.53229e-014
lhumerus 24.909 2.98436 47.7388
lradius 90.2924
lwrist 4.82942
lhand -31.7159 -12.4517
lfingers 7.12502
lthumb -4.97446 17.4699
rfemur -47.3077 -1.3808 28.4052
rtibia 69.8993
rfoot -30.7011 -22.4461
rtoes -44.7358
lfemur -113.656 -1.4075 -38.4303
ltibia 66.8561
lfoot 3.88124 -15.6661
ltoes -7.79263
222
root -5.66568 13.7382 5.65836 -134.442 17.3466 162.238
lowerback 46.381 -7.18355 4.86403
upperback 15.13 -1.87677 -3.60621
thorax -4.55025 1.10148 -5.67043
lowerneck 4.03307 -10.8217 -1.13543
upperneck -24.0223 -14.621 5.63733
head -7.54559 -8.13547 3.17233
rclavicle -5.08889e-014 -3.81667e-014
rhumerus 73.817 -32.6384 -55.6135
rradius 29.1628
rwrist 2.95584
rhand -29.2605 -11.0749
rfingers 7.12502
rthumb -2.60331 -41.0388
lclavicle -5.08889e-014 -3.81667e-014
lhumerus 28.3401 2.95181 44.7703
lradius 89.2025
lwrist 4.78469
lhand -32.1227 -12.3081
lfingers 7.12502
lthumb -5.36718 17.6039
rfemur -45.1765 -1.7844 28.4671
rtibia 67.2173
rfoot -28.2663 -20.7865
rtoes -45.2252
lfemur -114.058 -1.66622 -38.1293
ltibia 69.7162
lfoot -0.290186 -14.556
ltoes -5.66968
223
root -5.45975 13.6784 5.16165 -133.365 17.1582 162.097
lowerback 46.5287 -6.87851 4.54935
upperback 15.1017 -1.64488 -3.56734
thorax -4.58132 1.17995 -5.56478
lowerneck 4.4868 -10.9616 -1.10732
upperneck -24.345 -14.5365 6.44082
head -7.66712 -8.13937 3.45843
rclavicle 4.45278e-014 1.03368e-014
rhumerus 73.4716 -32.901 -56.5787
rradius 29.361
rwrist 2.59236
rhand -31.3377 -11.0614
rfingers 7.12502
rthumb -4.60923 -40.9912
lclavicle 4.45278e-014 1.03368e-014
lhumerus 31.8493 3.20513 41.8776
lradius 87.9744
lwrist 4.71776
lhand -32.5012 -12.072
lfingers 7.12502
lthumb -5.73266 17.8304
rfemur -43.1243 -2.10984 28.6597
rtibia 64.3316
rfoot -25.2754 -18.3437
rtoes -45.4333
lfemur -114.571 -1.85423 -37.9489
ltibia 72.5336
lfoot -4.04829 -13.4006
ltoes -3.00243
224
root -5.24168 13.6154 4.66855 -132.146 16.8682 162.08
lowerback 46.4933 -6.47048 4.23242
upperback 15.0456 -1.32572 -3.45897
thorax -4.58965 1.28499 -5.41926
lowerneck 4.91284 -11.0741 -1.09545
upperneck -24.6694 -14.4259 7.21734
head -7.78764 -8.13319 3.73781
rclavicle 2.22639e-014 -6.36111e-014
rhumerus 72.6886 -32.9662 -57.4744
rradius 29.7242
rwrist 2.71863
rhand -34.5467 -11.2378
rfingers 7.12502
rthumb -7.70727 -41.0774
lclavicle 2.22639e-014 -6.36111e-014
lhumerus 35.4703 3.70314 39.2122
lradius 86.5877
lwrist 4.53525
lhand -32.8666 -11.6923
lfingers 7.12502
lthumb -6.08544 18.2003
rfemur -41.1646 -2.26389 29.0208
rtibia 61.2784
rfoot -21.7572 -15.0592
rtoes -45.326
lfemur -115.205 -1.87508 -37.8068
ltibia 75.2259
lfoot -7.36441 -12.4695
ltoes -3.14321
225
root -5.0139 13.5479 4.18012 -130.802 16.4828 162.175
lowerback 46.2727 -5.98584 3.92338
upperback 14.9729 -0.940662 -3.29102
thorax -4.56685 1.40977 -5.23934
lowerneck 5.30566 -11.1599 -1.05674
upperneck -25.0136 -14.313 7.87353
head -7.92343 -8.12581 3.97834
rclavicle -7.63333e-014 3.49861e-014
rhumerus 71.6578 -32.8891 -58.324
rradius 30.045
rwrist 3.14015
rhand -38.6621 -11.6771
rfingers 7.12502
rthumb -11.6779 -41.3316
lclavicle -7.63333e-014 3.49861e-014
lhumerus 39.1816 4.43694 36.8382
lradius 85.0169
lwrist 4.24716
lhand -33.2277 -11.259
lfingers 7.12502
lthumb -6.434 18.6233
rfemur -39.3453 -2.28847 29.5623
rtibia 58.1572
rfoot -17.9041 -11.2249
rtoes -45.3916
lfemur -115.905 -1.7156 -37.6215
ltibia 77.7362
lfoot -10.2927 -11.935
ltoes -2.94939
226
root -4.77866 13.4774 3.69699 -129.402 16.0381 162.331
lowerback 45.9386 -5.44792 3.58316
upperback 14.8792 -0.523477 -3.0816
thorax -4.53908 1.5409 -5.01017
lowerneck 5.63697 -11.2205 -0.972551
upperneck -25.3504 -14.2125 8.35863
head -8.06564 -8.12023 4.15809
rclavicle 6.36111e-014 9.54166e-015
rhumerus 70.7558 -32.724 -60.17
rradius 30.7144
rwrist 4.35847
rhand -43.2164 -12.5434
rfingers 7.12502
rthumb -16.0667 -41.8973
lclavicle 6.36111e-014 9.54166e-015
lhumerus 42.9662 5.37463 34.7958
lradius 83.2191
lwrist 3.86323
lhand -33.6521 -10.8351
lfingers 7.12502
lthumb -6.84374 19.0343
rfemur -37.6815 -2.25558 30.234
rtibia 55.1154
rfoot -13.967 -7.00409
rtoes -45.3968
lfemur -116.551 -1.37545 -37.3815
ltibia 80.0272
lfoot -13.0508 -11.8134
ltoes -3.16561
227
root -4.53957 13.4044 3.21872 -128.006 15.5455 162.503
lowerback 45.5588 -4.91854 3.20628
upperback 14.7573 -0.14302 -2.86406
thorax -4.53809 1.65053 -4.73729
lowerneck 5.88435 -11.2517 -0.84324
upperneck -25.6477 -14.1242 8.66037
head -8.20006 -8.11354 4.26821
rclavicle -6.99722e-014 -5.56597e-014
rhumerus 69.8216 -32.4469 -62.683
rradius 31.7392
rwrist 5.82026
rhand -47.8144 -13.6173
rfingers 7.12502
rthumb -20.49 -42.5561
lclavicle -6.99722e-014 -5.56597e-014
lhumerus 46.7628 6.49725 33.1149
lradius 81.19
lwrist 3.36937
lhand -34.1985 -10.4308
lfingers 7.12502
lthumb -7.3712 19.4208
rfemur -36.2049 -2.27392 31.0145
rtibia 52.3545
rfoot -10.3677 -2.72643
rtoes -45.4763
lfemur -117.029 -0.888238 -37.0554
ltibia 82.062
lfoot -15.7279 -12.009
ltoes -3.43771
228
root -4.29955 13.334 2.74472 -126.695 15.0063 162.637
lowerback 45.244 -4.46412 2.78794
upperback 14.5926 0.128995 -2.66377
thorax -4.61358 1.70929 -4.41896
lowerneck 6.0478 -11.2315 -0.728693
upperneck -25.8619 -14.009 8.84729
head -8.30205 -8.08461 4.33138
rclavicle 5.725e-014 2.70347e-014
rhumerus 68.5952 -32.0063 -65.5597
rradius 33.326
rwrist 7.14491
rhand -51.9871 -14.7859
rfingers 7.12502
rthumb -24.4951 -43.2394
lclavicle 5.725e-014 2.70347e-014
lhumerus 50.5259 7.7645 31.8072
lradius 78.8929
lwrist 2.71752
lhand -34.8491 -10.0251
lfingers 7.12502
lthumb -7.99916 19.8035
rfemur -34.9451 -2.49332 31.8816
rtibia 50.1012
rfoot -7.31971 1.38016
rtoes -45.4953
lfemur -117.21 -0.316266 -36.6301
ltibia 83.7932
lfoot -18.3979 -12.4154
ltoes -3.59349
